<svg version="1.1"
  width="560"
  height="560"
  xmlns="http://www.w3.org/2000/svg">

  <rect x="0" y="-400" width="150%" height="50" fill="#ffec5a" transform="rotate(45)" />
  <rect x="0" y="-350" width="150%" height="50" fill="#ffed68" transform="rotate(45)" />
  <rect x="0" y="-300" width="150%" height="50" fill="#ffec5a" transform="rotate(45)" />
  <rect x="0" y="-250" width="150%" height="50" fill="#ffed68" transform="rotate(45)" />
  <rect x="0" y="-200" width="150%" height="50" fill="#ffec5a" transform="rotate(45)" />
  <rect x="0" y="-150" width="150%" height="50" fill="#ffed68" transform="rotate(45)" />
  <rect x="0" y="-100" width="150%" height="50" fill="#ffec5a" transform="rotate(45)" />
  <rect x="0" y="-50" width="150%" height="50" fill="#ffed68" transform="rotate(45)" />
  <rect x="0" y="0" width="150%" height="50" fill="#ffec5a" transform="rotate(45)" />
  <rect x="0" y="50" width="150%" height="50" fill="#ffed68" transform="rotate(45)" />
  <rect x="0" y="100" width="150%" height="50" fill="#ffec5a" transform="rotate(45)" />
  <rect x="0" y="150" width="150%" height="50" fill="#ffed68" transform="rotate(45)" />
  <rect x="0" y="200" width="150%" height="50" fill="#ffec5a" transform="rotate(45)" />
  <rect x="0" y="250" width="150%" height="50" fill="#ffed68" transform="rotate(45)" />
  <rect x="0" y="300" width="150%" height="50" fill="#ffec5a" transform="rotate(45)" />
  <rect x="0" y="350" width="150%" height="50" fill="#ffed68" transform="rotate(45)" />
</svg>